# xmcd
#
# Track frame offsets:
#	150
#	13582
#	28367
#	39022
#	49712
#	62107
#	74577
#	88737
#	102302
#	114047
#	130492
#	144047
#	156880
#	168322
#	181857
#	195672
#	208440
#	217532
#	229992
#	242815
#	252215
#	270592
#
# Disc length: 3835
#
# Revision: 4
# Processed by: cddbd v1.5.1PL0 Copyright (c) Steve Scherf et al.
# Submitted via: ExactAudioCopy v0.90b4
# Normalized: r3:TDELIM( - ),TSWAP
#
DISCID=330ef916
DTITLE=Time Life Music - Contemporary Country - The Mid '70s - Pure Gold
DYEAR=1900
DGENRE=Country
TTITLE0=Billy Swan - I Can Help
TTITLE1=Joe Stampley - All These Things
TTITLE2=Dolly Parton - Love Is Like A Butterfly
TTITLE3=Don Williams - (Turn Out The Lights And) Love Me Tonight
TTITLE4=George Jones - The Door
TTITLE5=Freddy Fender - Wasted Days And Wasted Nights
TTITLE6=Moe Bandy - Hank Williams, You Wrote My Life
TTITLE7=Gary Stewart - Drinkin' Thing
TTITLE8=Lefty Frizell - I Never Go Around Mirrors
TTITLE9=Cal Smith - Country Bumpkin
TTITLE10=Emmylou Harris - Sweet Dreams
TTITLE11=Tom T. Hall - Faster Horses (The Cowboy And The Poet)
TTITLE12=Loretta Lynn - Love Is The Foundation
TTITLE13=Ronnie Milsap - (I'm A) Stand By My Woman Man
TTITLE14=Tammy Wynette - 'Til I Can Make It On My Own
TTITLE15=Conway Twitty - I See The Want To In Your Eyes
TTITLE16=Johnny Rodriguez - Just Get Up And Close The Door
TTITLE17=Charlie Rich - A Very Special Love Song
TTITLE18=Tanya Tucker - San Antonio Stroll
TTITLE19=Willie Nelson - If You've Got The Money I've Got The Time
TTITLE20=Johnny Cash - One Piece At A Time
TTITLE21=C.W. McCall - Convoy
EXTD=
EXTT0=
EXTT1=
EXTT2=
EXTT3=
EXTT4=
EXTT5=
EXTT6=
EXTT7=
EXTT8=
EXTT9=
EXTT10=
EXTT11=
EXTT12=
EXTT13=
EXTT14=
EXTT15=
EXTT16=
EXTT17=
EXTT18=
EXTT19=
EXTT20=
EXTT21=
PLAYORDER=
